<?xml version="1.0" encoding="utf-8"?>
<!-- Generator: Adobe Illustrator 22.0.1, SVG Export Plug-In . SVG Version: 6.00 Build 0)  -->
<svg version="1.1" id="Calque_1" xmlns="http://www.w3.org/2000/svg" xmlns:xlink="http://www.w3.org/1999/xlink" x="0px" y="0px"
	 viewBox="0 0 32.9 58.9" style="enable-background:new 0 0 32.9 58.9;" xml:space="preserve">
<style type="text/css">
	.st0{fill:#9AC31C;}
	.st1{clip-path:url(#SVGID_2_);}
	.st2{fill:none;stroke:#FFFFFF;stroke-width:1.88;stroke-miterlimit:10;}
	.st3{clip-path:url(#SVGID_4_);}
	.st4{fill:#87C037;}
	.st5{clip-path:url(#SVGID_6_);}
	.st6{fill:none;stroke:#FFFFFF;stroke-width:1.875;stroke-miterlimit:10;}
	.st7{fill:#88BE3B;}
</style>
<title>monogramme_fondgris</title>
<g id="Calque_2_1_">
	<g id="Calque_1-2">
		<path class="st0" d="M0.5,45.4"/>
		<g>
			<g>
				<defs>
					<rect id="SVGID_1_" x="-1.1" y="0" width="35.7" height="46.6"/>
				</defs>
				<clipPath id="SVGID_2_">
					<use xlink:href="#SVGID_1_"  style="overflow:visible;"/>
				</clipPath>
				<g class="st1">
					<path class="st2" d="M33.1,45.4"/>
				</g>
			</g>
		</g>
		<g>
			<g>
				<defs>
					<rect id="SVGID_3_" x="-259.4" y="-418.4" width="841.9" height="595.3"/>
				</defs>
				<clipPath id="SVGID_4_">
					<use xlink:href="#SVGID_3_"  style="overflow:visible;"/>
				</clipPath>
				<g class="st3">
					<path class="st4" d="M15.9,0C6.2,0,0.4,7.9,0.4,17.1c0,8.9,6.1,17,15.5,17c4.4,0.1,8.5-1.9,11.1-5.4h0.1v4.5h5.5V0.9h-5.5v4.6
						h-0.2C24.3,2.1,20.3,0.1,15.9,0 M16.6,5.1c6.8,0,10.9,5.2,10.9,11.7S23.8,29,16.7,29C9.8,29.1,6,23.1,6,16.8
						C6,10.8,10.1,5.1,16.6,5.1"/>
				</g>
			</g>
		</g>
	</g>
</g>
<g>
	<g>
		<defs>
			<rect id="SVGID_5_" x="-1.5" y="-0.1" width="35.7" height="46.6"/>
		</defs>
		<clipPath id="SVGID_6_">
			<use xlink:href="#SVGID_5_"  style="overflow:visible;"/>
		</clipPath>
		<g class="st5">
			<path class="st2" d="M32.8,45.3L32.8,45.3z"/>
		</g>
	</g>
</g>
<path class="st6" d="M32.7,44.9H0H32.7z"/>
</svg>
