<?xml version="1.0" encoding="UTF-8" standalone="no"?>
<svg
   xmlns:dc="http://purl.org/dc/elements/1.1/"
   xmlns:cc="http://creativecommons.org/ns#"
   xmlns:rdf="http://www.w3.org/1999/02/22-rdf-syntax-ns#"
   xmlns:svg="http://www.w3.org/2000/svg"
   xmlns="http://www.w3.org/2000/svg"
   xmlns:xlink="http://www.w3.org/1999/xlink"
   xmlns:sodipodi="http://sodipodi.sourceforge.net/DTD/sodipodi-0.dtd"
   xmlns:inkscape="http://www.inkscape.org/namespaces/inkscape"
   height="5.3866663cm"
   width="18.450731cm"
   xml:space="preserve"
   viewBox="0 0 653.76603 190.86614"
   y="0px"
   x="0px"
   id="Layer_1"
   version="1.1"
   sodipodi:docname="anakeenLogoLong2.svg"
   inkscape:version="0.92.1 r15371"><sodipodi:namedview
     pagecolor="#ffffff"
     bordercolor="#666666"
     borderopacity="1"
     objecttolerance="10"
     gridtolerance="10"
     guidetolerance="10"
     inkscape:pageopacity="0"
     inkscape:pageshadow="2"
     inkscape:window-width="1788"
     inkscape:window-height="755"
     id="namedview27"
     showgrid="false"
     inkscape:zoom="0.59510966"
     inkscape:cx="-53.771597"
     inkscape:cy="98.434544"
     inkscape:window-x="195"
     inkscape:window-y="190"
     inkscape:window-maximized="0"
     inkscape:current-layer="Layer_1" /><metadata
     id="metadata4306"><rdf:RDF><cc:Work
         rdf:about=""><dc:format>image/svg+xml</dc:format><dc:type
           rdf:resource="http://purl.org/dc/dcmitype/StillImage" /><dc:title></dc:title></cc:Work></rdf:RDF></metadata><defs
     id="defs4304" /><style
     id="style4250"
     type="text/css">
	.st0{fill:#92C83E;}
	.st1{clip-path:url(#SVGID_2_);fill:none;stroke:#253338;stroke-width:5;stroke-miterlimit:10;}
	.st2{clip-path:url(#SVGID_2_);fill:#92C83E;}
	.st3{clip-path:url(#SVGID_4_);fill:#263439;}
	.st4{clip-path:url(#SVGID_4_);fill:#92C83E;}
	.st5{fill:#263439;}
	.st6{clip-path:url(#SVGID_6_);fill:#263439;}
	.st7{fill:#FFFFFF;}
</style><path
     style="fill:#92c83e"
     id="path4256"
     d="m 272.63305,349.63307 h 86.7 z"
     class="st0"
     inkscape:connector-curvature="0" /><g
     id="g4560"><g
       transform="translate(-94.466949,-102.06693)"
       id="g4270"><defs
         id="defs4272"><rect
           id="SVGID_3_"
           x="129.89999"
           y="137.5"
           width="582.90002"
           height="120" /></defs><clipPath
         id="SVGID_4_"><use
           xlink:href="#SVGID_3_"
           style="overflow:visible"
           id="use4276"
           x="0"
           y="0"
           width="100%"
           height="100%" /></clipPath><path
         inkscape:connector-curvature="0"
         class="st3"
         d="m 346.6,181.3 c 17.9,0 28.6,13.7 28.7,30.7 0.1,17.1 -9.7,32.1 -28.3,32.1 -18.1,0 -27.9,-15.7 -27.9,-32.3 -0.1,-15.8 10.7,-30.5 27.5,-30.5 M 344.9,168 c -25.5,0 -40.7,20.8 -40.7,45 0.1,23.5 15.8,44.6 40.8,44.6 11.9,0 21.9,-4.7 29.2,-14.1 h 0.4 v 11.7 h 14.5 l -0.3,-84.8 h -14.5 v 12.1 H 374 C 366.9,173.4 356.5,168 344.9,168"
         id="path4278"
         clip-path="url(#SVGID_4_)"
         style="fill:#263439" /><path
         inkscape:connector-curvature="0"
         class="st4"
         d="m 172.2,181.3 c 17.9,0 28.6,13.7 28.6,30.7 0.1,17.1 -9.7,32.1 -28.3,32.1 -18.1,0 -27.9,-15.7 -27.9,-32.3 0,-15.8 10.8,-30.5 27.6,-30.5 M 170.6,168 c -25.5,0 -40.8,20.8 -40.7,45 0.1,23.5 15.9,44.6 40.8,44.6 11.9,0 21.8,-4.7 29.2,-14.1 h 0.4 v 11.7 h 14.5 l -0.3,-84.8 H 200 l 0.1,12.1 h -0.4 C 192.6,173.4 182.1,168 170.6,168"
         id="path4280"
         clip-path="url(#SVGID_4_)"
         style="fill:#92c83e" /><path
         inkscape:connector-curvature="0"
         class="st3"
         d="m 265.8,168 c -10.5,0 -18.2,4.5 -24.2,12.6 h -0.4 v -10.3 h -14.4 l 0.3,84.8 h 14.5 l -0.1,-40.3 c -0.1,-15.2 1.2,-33.6 21,-33.6 16.8,0 17.9,12.3 18,26 l 0.2,47.8 H 295 l -0.2,-50.4 C 294.7,185 289.3,168 265.8,168"
         id="path4282"
         clip-path="url(#SVGID_4_)"
         style="fill:#263439" /><path
         inkscape:connector-curvature="0"
         class="st3"
         d="m 683.6,168 c -10.5,0 -18.2,4.5 -24.2,12.6 H 659 v -10.3 h -14.4 l 0.3,84.8 h 14.5 l -0.1,-40.3 c -0.1,-15.2 1.2,-33.6 21,-33.6 16.8,0 17.9,12.3 18,26 l 0.2,47.8 h 14.4 l -0.2,-50.4 C 712.6,185 707.1,168 683.6,168"
         id="path4284"
         clip-path="url(#SVGID_4_)"
         style="fill:#263439" /></g><polygon
       transform="translate(-94.466949,-102.06693)"
       class="st5"
       points="418.3,137.5 403.9,137.5 404.3,255.2 418.7,255.2 418.6,220.3 422.4,216.6 456.6,255.2 475.8,255.2 432.5,206.4 468.7,170.3 449.3,170.3 418.5,201.8 "
       id="polygon4286"
       style="fill:#263439" /><g
       transform="translate(-94.466949,-102.06693)"
       id="g4288"><defs
         id="defs4290"><rect
           id="SVGID_5_"
           x="129.89999"
           y="137.5"
           width="582.90002"
           height="120" /></defs><clipPath
         id="SVGID_6_"><use
           xlink:href="#SVGID_5_"
           style="overflow:visible"
           id="use4294"
           x="0"
           y="0"
           width="100%"
           height="100%" /></clipPath><path
         inkscape:connector-curvature="0"
         class="st6"
         d="m 595.5,181.3 c 12.6,0 23,9.9 25,22.2 h -50.8 c 1.8,-12.2 13.3,-22.2 25.8,-22.2 M 595.3,168 c -26.6,0 -41.1,20.8 -41,45.9 0.1,24.4 16.4,43.7 41.7,43.7 17.3,0 31,-8.7 39.1,-23.8 l -12.3,-7 c -5.6,10.1 -13.5,17.5 -25.8,17.5 -16.4,0 -27.7,-12.7 -27.9,-28.4 h 66.7 C 637.1,190.6 622.6,168 595.3,168"
         id="path4296"
         clip-path="url(#SVGID_6_)"
         style="fill:#263439" /><path
         inkscape:connector-curvature="0"
         class="st6"
         d="m 509,181.3 c 12.6,0 23,9.9 25,22.2 H 483.2 C 485,191.3 496.5,181.3 509,181.3 M 508.8,168 c -26.6,0 -41.1,20.8 -41,45.9 0.1,24.4 16.4,43.7 41.7,43.7 17.3,0 31,-8.7 39.1,-23.8 l -12.3,-7 c -5.6,10.1 -13.5,17.5 -25.8,17.5 -16.4,0 -27.7,-12.7 -27.9,-28.4 h 66.7 C 550.6,190.6 536,168 508.8,168"
         id="path4298"
         clip-path="url(#SVGID_6_)"
         style="fill:#263439" /></g></g><path
     style="fill:#ffffff"
     id="path4300"
     d="m 399.83305,351.53307 h 89.2 z"
     class="st7"
     inkscape:connector-curvature="0" /></svg>