<?xml version="1.0" encoding="utf-8"?>
<!-- Generator: Adobe Illustrator 22.0.1, SVG Export Plug-In . SVG Version: 6.00 Build 0)  -->
<svg version="1.1" id="Calque_1" xmlns="http://www.w3.org/2000/svg" xmlns:xlink="http://www.w3.org/1999/xlink" x="0px" y="0px"
	 viewBox="0 0 218.9 84.1" style="enable-background:new 0 0 218.9 84.1;" xml:space="preserve">
<style type="text/css">
	.st0{fill:#FFFFFF;}
	.st1{fill:#9AC31C;}
	.st2{font-family:'Roboto-Medium';}
	.st3{font-size:18.27px;}
	.st6{fill:none;stroke:#FFFFFF;stroke-width:2;}
</style>
<title>Anakeen White Logo</title>
<g id="Calque_2_1_">
	<g id="Calque_1-2">
		<path class="st0" d="M80.8,11.4c-9.6,0-15.3,7.8-15.2,16.9c0,8.8,5.9,16.7,15.3,16.7c4.3,0.1,8.4-1.8,11-5.3H92v4.4h5.4l-0.1-31.8
			h-5.4v4.5h-0.1C89.2,13.4,85.1,11.4,80.8,11.4 M81.5,16.4c6.7,0,10.7,5.1,10.8,11.5S88.6,40,81.6,40c-6.8,0-10.5-5.9-10.5-12.1
			C71.2,21.9,75.2,16.4,81.5,16.4"/>
		<path class="st1" d="M15.5,11.4c-9.5,0-15.3,7.8-15.3,16.9c0,8.8,6,16.7,15.3,16.7c4.3,0.1,8.4-1.8,11-5.3h0.1v4.4h5.4L32,12.3
			h-5.5v4.5h-0.1C23.8,13.4,19.7,11.4,15.5,11.4 M16.1,16.4c6.7,0,10.7,5.1,10.7,11.5S23.2,40,16.2,40C9.5,40,5.8,34.1,5.8,27.9
			C5.8,21.9,9.8,16.4,16.1,16.4"/>
		<path class="st0" d="M51.2,11.4c-3.6-0.1-7,1.7-9.1,4.7H42v-3.9h-5.5l0.1,31.8h5.4L42,29c0-5.7,0.4-12.6,7.9-12.6
			c6.3,0,6.7,4.6,6.7,9.8l0.1,17.9h5.4L62,25.2C62,17.8,60,11.4,51.2,11.4"/>
		<path class="st0" d="M207.9,11.4c-3.6-0.1-7,1.7-9.1,4.7h-0.1v-3.9h-5.4l0.1,31.8h5.4L198.7,29c0-5.7,0.4-12.6,7.9-12.6
			c6.3,0,6.7,4.6,6.7,9.8l0.1,17.9h5.4l-0.1-18.9C218.8,17.8,216.7,11.4,207.9,11.4"/>
		<polygon class="st0" points="127.3,12.3 120,12.3 108.5,24.1 108.4,0 103,0 103.1,44.1 108.5,44.1 108.5,31 109.9,29.6 
			122.8,44.1 129.9,44.1 113.7,25.8 		"/>
		<text transform="matrix(1 0 0 1 49.84 79.14)" class="st1 st2 st3">P</text>
		<text transform="matrix(1 0 0 1 64.81 79.14)" class="st1 st2 st3">L</text>
		<text transform="matrix(1 0 0 1 78.15 79.14)" class="st1 st2 st3">A</text>
		<text transform="matrix(1 0 0 1 92.79 79.14)" class="st1 st2 st3">T</text>
		<text transform="matrix(1 0 0 1 108.03 79.14)" class="st1 st2 st3">F</text>
		<text transform="matrix(1 0 0 1 120.70 79.14)" class="st1 st2 st3">O</text>
		<text transform="matrix(1 0 0 1 136.4 79.14)" class="st1 st2 st3">R</text>
		<text transform="matrix(1 0 0 1 151.08 79.14)" class="st1 st2 st3">M</text>
		<line class="st6" x1="0" y1="72.4" x2="35.7" y2="72.4"/>
		<line class="st6" x1="183.2" y1="72.4" x2="218.9" y2="72.4"/>
		<path class="st0" d="M174.8,11.4c-10,0-15.4,7.8-15.4,17.2c0,9.1,6.1,16.4,15.6,16.4c6.2,0.1,11.9-3.4,14.7-8.9l-4.6-2.6
			c-2.1,3.8-5.1,6.6-9.7,6.6c-6.2,0-10.4-4.7-10.5-10.6h25C190.4,19.9,185,11.4,174.8,11.4 M174.8,16.4c4.7,0.1,8.7,3.6,9.4,8.3h-19
			C166,20,170.1,16.5,174.8,16.4"/>
		<path class="st0" d="M142.3,11.4c-10,0-15.4,7.8-15.4,17.2c0,9.1,6.1,16.4,15.6,16.4c6.2,0.1,11.9-3.4,14.7-8.9l-4.6-2.6
			c-2.1,3.8-5.1,6.6-9.7,6.6c-6.2,0-10.4-4.7-10.5-10.6h25C158,19.9,152.5,11.4,142.3,11.4 M142.4,16.4c4.7,0.1,8.7,3.6,9.4,8.3h-19
			C133.6,20,137.6,16.5,142.4,16.4"/>
	</g>
</g>
</svg>
