<svg id="Calque_1" data-name="Calque 1" xmlns="http://www.w3.org/2000/svg" xmlns:xlink="http://www.w3.org/1999/xlink" viewBox="0 0 782.95 283.65"><defs><style>.cls-1{fill:none;}.cls-2{clip-path:url(#clip-path);}.cls-3,.cls-6{fill:#222d32;}.cls-4{fill:#88be3b;}.cls-5{clip-path:url(#clip-path-2);}.cls-6{stroke:#222d32;stroke-width:2px;}</style><clipPath id="clip-path" transform="translate(-29.99 -8.16)"><rect class="cls-1" x="30.78" y="8.15" width="781.37" height="160.22"/></clipPath><clipPath id="clip-path-2" transform="translate(-29.99 -8.16)"><rect class="cls-1" x="29.99" y="8.15" width="782.95" height="283.65"/></clipPath></defs><title>logo_ap_fondblanc</title><g class="cls-2"><path class="cls-3" d="M319.14,49C285,49,264.5,76.85,264.6,109.29c.1,31.48,21.26,59.78,54.68,59.78,16,0,29.32-6.25,39.22-18.85H359l0,15.71h19.39L378,52.18H358.64l.05,16.19h-.48A49.42,49.42,0,0,0,319.14,49m2.22,17.93c24,0,38.37,18.41,38.44,41.17.08,23-12.95,43.1-37.9,43.1-24.23,0-37.4-21.07-37.47-43.35-.07-21.3,14.4-40.92,36.93-40.92" transform="translate(-29.99 -8.16)"/><path class="cls-4" d="M85.37,49c-34.16,0-54.7,27.86-54.59,60.3.1,31.48,21.3,59.78,54.73,59.78,16,0,29.28-6.25,39.16-18.85h.49l0,15.71H144.6l-.39-113.75H124.82l.1,16.19h-.49A49.38,49.38,0,0,0,85.37,49m2.22,17.93c24,0,38.32,18.41,38.39,41.17.08,23-13,43.1-37.91,43.1-24.22,0-37.35-21.07-37.42-43.35-.07-21.3,14.41-40.92,36.94-40.92" transform="translate(-29.99 -8.16)"/><path class="cls-3" d="M213,49c-14.05,0-24.45,6.06-32.41,17h-.49l0-13.79H160.71L161.07,166h19.39l-.18-54c-.07-20.35,1.55-45,28.2-45,22.53,0,24,16.47,24.1,34.87l.21,64.16h19.38L252,98.39C251.87,71.77,244.53,49,213,49" transform="translate(-29.99 -8.16)"/><path class="cls-3" d="M773.42,49c-14,0-24.46,6.06-32.41,17h-.48l0-13.79H721.1L721.47,166h19.38l-.17-54c-.08-20.35,1.54-45,28.19-45,22.53,0,24,16.47,24.11,34.87l.2,64.16h19.38l-.21-67.56C812.26,71.77,804.92,49,773.42,49" transform="translate(-29.99 -8.16)"/></g><polygon class="cls-3" points="368.25 0 368.76 157.79 388.14 157.79 387.99 111.06 393.06 105.97 439.02 157.78 464.71 157.78 406.59 92.42 455.13 44 429.21 44 387.92 86.13 387.64 0 368.25 0"/><g class="cls-5"><line class="cls-6" y1="259" x2="127.58" y2="259"/><line class="cls-6" x1="655.37" y1="259" x2="782.95" y2="259"/><path class="cls-3" d="M654.94,49c-35.62,0-55.14,27.85-55,61.51.09,32.69,22,58.57,55.89,58.57,23.25,0,41.62-11.61,52.46-31.94l-16.49-9.42c-7.47,13.55-18.1,23.48-34.57,23.48-22,0-37.11-17-37.42-38h89.4C711,79.27,691.52,49,654.94,49m.28,17.93c17,0,30.84,13.3,33.57,29.76H620.7c2.38-16.46,17.8-29.76,34.52-29.76" transform="translate(-29.99 -8.16)"/><path class="cls-3" d="M538.89,49c-35.6,0-55.13,27.85-55,61.51.11,32.69,22,58.57,55.89,58.57,23.26,0,41.63-11.61,52.47-31.94l-16.5-9.42c-7.46,13.55-18.08,23.48-34.56,23.48-22,0-37.11-17-37.42-38h89.39C595,79.27,575.48,49,538.89,49m.3,17.93c16.95,0,30.83,13.3,33.55,29.76H504.67c2.36-16.46,17.8-29.76,34.52-29.76" transform="translate(-29.99 -8.16)"/><path class="cls-4" d="M581.05,244.71v46.46h8V275.85l-.8-20.45L602,291.17h5.78l13.71-35.8-.79,20.48v15.32h8V244.71H618.28l-13.36,35.61-13.41-35.61Zm-45.29,6.51h8.52c2.8,0,4.92.75,6.33,2.1a7.64,7.64,0,0,1,2.12,5.78,7.15,7.15,0,0,1-2.3,5.63,9.17,9.17,0,0,1-6.38,2.06h-8.29Zm18.31,40h8.65v-.42l-10.43-19.34a14.31,14.31,0,0,0,6.27-4.84,13.16,13.16,0,0,0,2.25-7.81q0-6.84-4.37-10.44T544,244.71H527.68v46.46h8.08V273.3h9Zm-55.08-22c0,5.24-1,9.21-2.89,11.94a10.34,10.34,0,0,1-16.53-.1q-3-4.17-3-11.84v-2.68q.06-7.5,3-11.6a10.3,10.3,0,0,1,16.47,0Q499,259,499,266.73Zm8.07-2.58a28.26,28.26,0,0,0-2.42-11.92,17.92,17.92,0,0,0-6.79-7.85,19.83,19.83,0,0,0-20.13,0,18.14,18.14,0,0,0-6.8,8,28.37,28.37,0,0,0-2.41,12v2.62A27.82,27.82,0,0,0,471,281.18a18.17,18.17,0,0,0,6.83,7.87,19.81,19.81,0,0,0,20.17,0,17.92,17.92,0,0,0,6.75-7.92,28.52,28.52,0,0,0,2.36-12ZM448.27,265H429.58V251.22H451v-6.51H421.5v46.46h8.08V271.48h18.69Zm-45.45-20.33H366v6.51h14.36v40h8v-40h14.48ZM334,254.57l6.73,19.27H327.28Zm12.79,36.6h8.42l-17.58-46.46h-7.24l-17.55,46.46h8.39L325,280.35h18Zm-70.27-46.46h-8.08v46.46h29.17v-6.44H276.54Zm-54.36,6.51h9.93a8.84,8.84,0,0,1,6.32,2.31,8,8,0,0,1,2.29,6,7.44,7.44,0,0,1-2.26,5.85q-2.27,2-6.57,2h-9.71Zm9.61,22.72q8.07,0,12.56-3.8t4.48-10.64a13.64,13.64,0,0,0-4.58-10.73c-3.05-2.71-7.18-4.06-12.36-4.06H214.11v46.46h8.07V273.94Z" transform="translate(-29.99 -8.16)"/></g></svg>